<svg width="50" height="50" fill="none" xmlns="http://www.w3.org/2000/svg"><rect width="50" height="50" rx="25" fill="#AE2828"/><path d="M35.16 18.019l-.156-.833c-.14-.747-.457-1.454-1.18-1.723-.232-.087-.495-.123-.672-.302-.18-.178-.231-.457-.273-.715-.076-.472-.147-.945-.226-1.416-.067-.406-.12-.862-.295-1.234-.23-.5-.704-.792-1.174-.985a6.466 6.466 0 00-.739-.242c-1.179-.329-2.417-.45-3.628-.52a28.746 28.746 0 00-4.363.077c-1.08.104-2.217.23-3.243.625-.375.145-.762.32-1.047.627-.35.377-.464.962-.21 1.432.183.334.49.57.817.725.424.203.869.355 1.324.457 1.268.298 2.582.414 3.876.463a27.82 27.82 0 004.305-.148c.352-.04.705-.09 1.056-.148.415-.068.682-.642.56-1.043-.147-.479-.54-.663-.984-.591-.55.092-1.132.135-1.63.182-1.388.1-2.78.103-4.17.008-.456-.032-.91-.077-1.364-.134-.102-.012-.212-.031-.305-.045-.286-.045-.57-.1-.853-.162-.131-.034-.131-.232 0-.265h.006c.326-.075.657-.135.988-.184h.002c.155-.011.31-.04.465-.06a27.89 27.89 0 014.04-.15 26.28 26.28 0 012.378.18l.27.039c.314.05.628.11.94.181.463.106 1.056.141 1.262.678.065.17.095.36.131.538l.376 1.855a.312.312 0 01-.044.232.288.288 0 01-.083.083.27.27 0 01-.107.04h-.004c-.044.008-.088.013-.132.019-1.855.25-3.723.374-5.593.369a41.254 41.254 0 01-5.542-.38c-.165-.021-.345-.053-.491-.075-.385-.06-.766-.135-1.148-.201-.463-.082-.905-.04-1.324.2-.342.2-.621.506-.796.877-.181.395-.235.825-.315 1.25-.081.425-.207.884-.159 1.32.103.941.723 1.706 1.616 1.877 4.414.835 8.919.994 13.376.47a.565.565 0 01.465.17.61.61 0 01.136.227.64.64 0 01.03.266l-.084.871-1.2 12.384c-.049.512-.056 1.04-.148 1.546-.144.797-.652 1.285-1.394 1.464-.68.164-1.374.25-2.07.256-.774.005-1.545-.031-2.319-.027-.824.005-1.835-.075-2.47-.725-.56-.573-.637-1.468-.714-2.242l-.862-8.766-.38-3.867c-.043-.439-.337-.869-.8-.848-.395.019-.846.375-.799.849l.27 2.731 1.118 11.39c.174 1.68 1.385 2.585 2.885 2.84.875.15 1.772.18 2.661.195 1.14.02 2.29.066 3.41-.152 1.661-.323 2.907-1.498 3.085-3.322.401-4.165.806-8.328 1.208-12.493l.254-2.609a.623.623 0 01.146-.347.563.563 0 01.314-.186c.474-.097.928-.264 1.266-.647.537-.61.644-1.405.454-2.208v.002zm-1.743.965c-.17.171-.428.251-.681.291-2.85.449-5.739.675-8.618.575-2.062-.075-4.1-.318-6.14-.623-.201-.03-.417-.068-.555-.224-.26-.296-.13-.888-.064-1.244.062-.325.18-.762.546-.808.571-.071 1.234.185 1.8.275.68.11 1.363.199 2.048.265a37.32 37.32 0 008.811-.175 33.86 33.86 0 001.587-.262c.47-.09.99-.258 1.273.257.196.352.222.822.191 1.218a.698.698 0 01-.2.455h.002zm-7.263 4.875c-1.016.462-2.17.985-3.666.985a6.576 6.576 0 01-1.85-.271l1.034 11.255c.076.974.845 1.724 1.769 1.724 0 0 1.466.082 1.955.082.527 0 2.106-.082 2.106-.082.923 0 1.691-.75 1.768-1.724l1.108-12.438a4.475 4.475 0 00-1.559-.297c-.974 0-1.758.355-2.665.766z" fill="#F5D4D4"/></svg>